<svg width="282" height="333" viewBox="0 0 282 333" fill="none" xmlns="http://www.w3.org/2000/svg">
<g clip-path="url(#clip0_33_2265)">
<path d="M252.233 189.88V191H244.793V187.68C244.046 188.907 243.206 189.84 242.273 190.48C241.366 191.093 240.286 191.4 239.033 191.4C236.793 191.4 235.006 190.52 233.673 188.76C232.366 186.973 231.713 184.48 231.713 181.28V180.48C231.713 177.387 232.473 174.92 233.993 173.08C235.539 171.24 237.646 170.32 240.313 170.32C241.913 170.32 243.326 170.72 244.553 171.52V164.76C244.553 163.853 244.513 163.32 244.433 163.16C244.353 162.973 244.099 162.853 243.673 162.8L241.473 162.52V161.4H249.153V187.64C249.153 188.547 249.193 189.093 249.273 189.28C249.353 189.44 249.606 189.547 250.033 189.6L252.233 189.88ZM236.633 182.48C236.633 184.96 236.939 186.773 237.553 187.92C238.166 189.067 239.006 189.64 240.073 189.64C240.739 189.64 241.433 189.373 242.153 188.84C242.899 188.28 243.699 187.16 244.553 185.48V173.4C243.539 172.387 242.299 171.88 240.833 171.88C239.366 171.88 238.299 172.547 237.633 173.88C236.966 175.187 236.633 176.987 236.633 179.28V182.48Z" fill="#FFA500"/>
<path d="M227.261 186.24C226.781 188.107 225.887 189.44 224.581 190.24C223.274 191.013 221.754 191.4 220.021 191.4C216.821 191.4 214.421 190.48 212.821 188.64C211.221 186.773 210.421 184.307 210.421 181.24V180.44C210.421 177.373 211.167 174.92 212.661 173.08C214.181 171.24 216.367 170.32 219.221 170.32C220.821 170.32 222.234 170.64 223.461 171.28C224.714 171.893 225.687 172.787 226.381 173.96C227.101 175.133 227.461 176.56 227.461 178.24C227.461 178.64 227.434 179.067 227.381 179.52C227.354 179.973 227.287 180.427 227.181 180.88H215.341V182.04C215.341 184.867 215.741 186.907 216.541 188.16C217.341 189.387 218.634 190 220.421 190C221.567 190 222.541 189.667 223.341 189C224.141 188.307 224.594 187.147 224.701 185.52L227.261 186.24ZM219.221 171.72C217.914 171.72 216.941 172.32 216.301 173.52C215.661 174.72 215.341 176.707 215.341 179.48H222.581C222.687 178.947 222.754 178.453 222.781 178C222.834 177.52 222.861 177.08 222.861 176.68C222.861 174.973 222.527 173.72 221.861 172.92C221.194 172.12 220.314 171.72 219.221 171.72Z" fill="#FFA500"/>
<path d="M207.859 189.88V191H197.099V189.88L199.299 189.6C199.726 189.547 199.979 189.44 200.059 189.28C200.139 189.093 200.179 188.547 200.179 187.64V177.56C200.179 175.72 199.899 174.387 199.339 173.56C198.806 172.707 198.006 172.28 196.939 172.28C196.486 172.28 195.952 172.4 195.339 172.64C194.752 172.853 194.152 173.253 193.539 173.84C192.952 174.427 192.432 175.293 191.979 176.44V187.64C191.979 188.547 192.019 189.093 192.099 189.28C192.179 189.44 192.432 189.547 192.859 189.6L195.059 189.88V191H184.299V189.88L186.499 189.6C186.926 189.547 187.179 189.44 187.259 189.28C187.339 189.093 187.379 188.547 187.379 187.64V174.08C187.379 173.173 187.339 172.64 187.259 172.48C187.179 172.293 186.926 172.173 186.499 172.12L184.299 171.84V170.72H191.739V174.24C192.512 172.88 193.499 171.893 194.699 171.28C195.926 170.64 197.152 170.32 198.379 170.32C200.352 170.32 201.912 170.947 203.059 172.2C204.206 173.453 204.779 175.227 204.779 177.52V187.64C204.779 188.547 204.819 189.093 204.899 189.28C204.979 189.44 205.232 189.547 205.659 189.6L207.859 189.88Z" fill="#FFA500"/>
<path d="M181.167 186.24C180.687 188.107 179.794 189.44 178.487 190.24C177.18 191.013 175.66 191.4 173.927 191.4C170.727 191.4 168.327 190.48 166.727 188.64C165.127 186.773 164.327 184.307 164.327 181.24V180.44C164.327 177.373 165.074 174.92 166.567 173.08C168.087 171.24 170.274 170.32 173.127 170.32C174.727 170.32 176.14 170.64 177.367 171.28C178.62 171.893 179.594 172.787 180.287 173.96C181.007 175.133 181.367 176.56 181.367 178.24C181.367 178.64 181.34 179.067 181.287 179.52C181.26 179.973 181.194 180.427 181.087 180.88H169.247V182.04C169.247 184.867 169.647 186.907 170.447 188.16C171.247 189.387 172.54 190 174.327 190C175.474 190 176.447 189.667 177.247 189C178.047 188.307 178.5 187.147 178.607 185.52L181.167 186.24ZM173.127 171.72C171.82 171.72 170.847 172.32 170.207 173.52C169.567 174.72 169.247 176.707 169.247 179.48H176.487C176.594 178.947 176.66 178.453 176.687 178C176.74 177.52 176.767 177.08 176.767 176.68C176.767 174.973 176.434 173.72 175.767 172.92C175.1 172.12 174.22 171.72 173.127 171.72Z" fill="#FFA500"/>
<path d="M161.586 186.84C161.239 188.467 160.572 189.64 159.586 190.36C158.626 191.053 157.452 191.4 156.066 191.4C154.652 191.4 153.492 191.093 152.586 190.48C151.679 189.84 151.012 189 150.586 187.96C150.159 186.92 149.946 185.813 149.946 184.64V174.08C149.946 173.173 149.906 172.64 149.826 172.48C149.746 172.293 149.492 172.173 149.066 172.12L146.866 171.84V170.72H149.946V166.08L154.546 165.16V170.72H160.946V172.12H154.546V185.44C154.546 187.147 154.759 188.333 155.186 189C155.612 189.64 156.159 189.96 156.826 189.96C157.519 189.96 158.052 189.693 158.426 189.16C158.826 188.627 159.079 187.653 159.186 186.24L161.586 186.84Z" fill="#FFA500"/>
<path d="M145.977 189.88V191H135.217V189.88L137.417 189.6C137.844 189.547 138.097 189.44 138.177 189.28C138.257 189.093 138.297 188.547 138.297 187.64V177.56C138.297 175.72 138.017 174.387 137.457 173.56C136.924 172.707 136.124 172.28 135.057 172.28C134.604 172.28 134.071 172.4 133.457 172.64C132.871 172.853 132.271 173.253 131.657 173.84C131.071 174.427 130.551 175.293 130.097 176.44V187.64C130.097 188.547 130.137 189.093 130.217 189.28C130.297 189.44 130.551 189.547 130.977 189.6L133.177 189.88V191H122.417V189.88L124.617 189.6C125.044 189.547 125.297 189.44 125.377 189.28C125.457 189.093 125.497 188.547 125.497 187.64V164.76C125.497 163.853 125.457 163.32 125.377 163.16C125.297 162.973 125.044 162.853 124.617 162.8L122.417 162.52V161.4H130.097V173.84C130.871 172.613 131.831 171.72 132.977 171.16C134.151 170.6 135.324 170.32 136.497 170.32C138.471 170.32 140.031 170.947 141.177 172.2C142.324 173.453 142.897 175.227 142.897 177.52V187.64C142.897 188.547 142.937 189.093 143.017 189.28C143.097 189.44 143.351 189.547 143.777 189.6L145.977 189.88Z" fill="#FFA500"/>
<path d="M120.928 193.08C120.928 195.267 120.102 196.947 118.448 198.12C116.822 199.32 114.582 199.92 111.728 199.92C108.582 199.92 106.235 199.4 104.688 198.36C103.142 197.347 102.302 196.08 102.168 194.56L106.448 193.88C106.342 195.293 106.675 196.413 107.448 197.24C108.248 198.093 109.675 198.52 111.728 198.52C113.648 198.52 115.195 198.16 116.368 197.44C117.568 196.72 118.168 195.68 118.168 194.32C118.168 193.36 117.808 192.627 117.088 192.12C116.395 191.64 115.235 191.4 113.608 191.4H109.048C107.635 191.4 106.515 191.2 105.688 190.8C104.888 190.4 104.328 189.907 104.008 189.32C103.688 188.707 103.528 188.08 103.528 187.44C103.528 186.667 103.742 185.907 104.168 185.16C104.595 184.387 105.328 183.627 106.368 182.88C105.222 182.373 104.288 181.627 103.568 180.64C102.848 179.653 102.488 178.427 102.488 176.96C102.488 175.467 102.835 174.24 103.528 173.28C104.222 172.293 105.155 171.56 106.328 171.08C107.502 170.573 108.808 170.32 110.248 170.32H110.928C112.475 170.32 113.808 170.573 114.928 171.08L120.688 168.24L121.168 172.16H116.608C117.248 172.72 117.742 173.4 118.088 174.2C118.462 174.973 118.648 175.893 118.648 176.96C118.648 178.4 118.302 179.613 117.608 180.6C116.915 181.587 115.982 182.333 114.808 182.84C113.662 183.347 112.368 183.6 110.928 183.6H110.248C109.448 183.6 108.662 183.52 107.888 183.36C107.222 183.813 106.755 184.253 106.488 184.68C106.248 185.08 106.128 185.467 106.128 185.84C106.128 186.267 106.315 186.587 106.688 186.8C107.088 187.013 107.728 187.12 108.608 187.12H113.808C116.102 187.12 117.862 187.64 119.088 188.68C120.315 189.693 120.928 191.16 120.928 193.08ZM110.928 182.2C111.782 182.2 112.515 181.827 113.128 181.08C113.742 180.333 114.048 178.96 114.048 176.96C114.048 174.96 113.742 173.587 113.128 172.84C112.515 172.093 111.782 171.72 110.928 171.72H110.248C109.395 171.72 108.648 172.093 108.008 172.84C107.395 173.587 107.088 174.96 107.088 176.96C107.088 178.96 107.395 180.333 108.008 181.08C108.648 181.827 109.395 182.2 110.248 182.2H110.928Z" fill="#FFA500"/>
<path d="M94.4636 167.28C93.6369 167.28 92.9702 167.027 92.4636 166.52C91.9569 165.987 91.7036 165.307 91.7036 164.48C91.7036 163.653 91.9569 162.987 92.4636 162.48C92.9702 161.973 93.6369 161.72 94.4636 161.72C95.2636 161.72 95.9302 161.973 96.4636 162.48C96.9969 162.987 97.2636 163.653 97.2636 164.48C97.2636 165.307 96.9969 165.987 96.4636 166.52C95.9302 167.027 95.2636 167.28 94.4636 167.28ZM89.1036 171.84V170.72H96.7836V187.64C96.7836 188.547 96.8236 189.093 96.9036 189.28C96.9836 189.44 97.2369 189.547 97.6636 189.6L99.8636 189.88V191H89.1036V189.88L91.3036 189.6C91.7302 189.547 91.9836 189.44 92.0636 189.28C92.1436 189.093 92.1836 188.547 92.1836 187.64V174.08C92.1836 173.173 92.1436 172.64 92.0636 172.48C91.9836 172.293 91.7302 172.173 91.3036 172.12L89.1036 171.84Z" fill="#FFA500"/>
<path d="M76.7924 162.52V161.4H84.4724V187.64C84.4724 188.547 84.5124 189.093 84.5924 189.28C84.6724 189.44 84.9257 189.547 85.3524 189.6L87.5524 189.88V191H76.7924V189.88L78.9924 189.6C79.419 189.547 79.6724 189.44 79.7524 189.28C79.8324 189.093 79.8724 188.547 79.8724 187.64V164.76C79.8724 163.853 79.8324 163.32 79.7524 163.16C79.6724 162.973 79.419 162.853 78.9924 162.8L76.7924 162.52Z" fill="#FFA500"/>
<path d="M75.7105 189.88V191H64.9505V189.88L67.1505 189.6C67.5772 189.547 67.8305 189.44 67.9105 189.28C67.9905 189.093 68.0305 188.547 68.0305 187.64V177.56C68.0305 175.72 67.7505 174.387 67.1905 173.56C66.6571 172.707 65.8572 172.28 64.7905 172.28C64.3372 172.28 63.8038 172.4 63.1905 172.64C62.6038 172.853 62.0038 173.253 61.3905 173.84C60.8038 174.427 60.2838 175.293 59.8305 176.44V187.64C59.8305 188.547 59.8705 189.093 59.9505 189.28C60.0305 189.44 60.2838 189.547 60.7105 189.6L62.9105 189.88V191H52.1505V189.88L54.3505 189.6C54.7771 189.547 55.0305 189.44 55.1105 189.28C55.1905 189.093 55.2305 188.547 55.2305 187.64V174.08C55.2305 173.173 55.1905 172.64 55.1105 172.48C55.0305 172.293 54.7771 172.173 54.3505 172.12L52.1505 171.84V170.72H59.5905V174.24C60.3638 172.88 61.3505 171.893 62.5505 171.28C63.7771 170.64 65.0038 170.32 66.2305 170.32C68.2038 170.32 69.7638 170.947 70.9105 172.2C72.0571 173.453 72.6305 175.227 72.6305 177.52V187.64C72.6305 188.547 72.6705 189.093 72.7505 189.28C72.8305 189.44 73.0838 189.547 73.5105 189.6L75.7105 189.88Z" fill="#FFA500"/>
<path d="M47.5289 184.12H48.6489V191H28.8489V189.88L31.0489 189.6C31.4756 189.547 31.7289 189.44 31.8089 189.28C31.8889 189.093 31.9289 188.547 31.9289 187.64V167.16C31.9289 166.253 31.8889 165.72 31.8089 165.56C31.7289 165.373 31.4756 165.253 31.0489 165.2L28.8489 164.92V163.8H48.2489V170.68H47.1289L45.8489 166.24C45.7689 165.92 45.6756 165.693 45.5689 165.56C45.4889 165.4 45.3156 165.307 45.0489 165.28C44.7822 165.227 44.3289 165.2 43.6889 165.2H36.7289V176.56H41.2889C41.9289 176.56 42.3822 176.547 42.6489 176.52C42.9156 176.467 43.0889 176.373 43.1689 176.24C43.2756 176.08 43.3689 175.84 43.4489 175.52L44.3289 172.28H45.4489V182.24H44.3289L43.4489 179C43.3689 178.68 43.2756 178.453 43.1689 178.32C43.0889 178.16 42.9156 178.067 42.6489 178.04C42.3822 177.987 41.9289 177.96 41.2889 177.96H36.7289V189.6H44.0889C44.7289 189.6 45.1822 189.587 45.4489 189.56C45.7156 189.507 45.8889 189.413 45.9689 189.28C46.0756 189.12 46.1689 188.88 46.2489 188.56L47.5289 184.12Z" fill="#FFA500"/>
<path d="M199.91 107.88V109H189.15V107.88L191.35 107.6C191.776 107.547 192.03 107.44 192.11 107.28C192.19 107.093 192.23 106.547 192.23 105.64V95.56C192.23 93.72 191.95 92.3867 191.39 91.56C190.856 90.7067 190.056 90.28 188.99 90.28C188.536 90.28 188.003 90.4 187.39 90.64C186.803 90.8533 186.203 91.2533 185.59 91.84C185.003 92.4267 184.483 93.2933 184.03 94.44V105.64C184.03 106.547 184.07 107.093 184.15 107.28C184.23 107.44 184.483 107.547 184.91 107.6L187.11 107.88V109H176.35V107.88L178.55 107.6C178.976 107.547 179.23 107.44 179.31 107.28C179.39 107.093 179.43 106.547 179.43 105.64V92.08C179.43 91.1733 179.39 90.64 179.31 90.48C179.23 90.2933 178.976 90.1733 178.55 90.12L176.35 89.84V88.72H183.79V92.24C184.563 90.88 185.55 89.8933 186.75 89.28C187.976 88.64 189.203 88.32 190.43 88.32C192.403 88.32 193.963 88.9467 195.11 90.2C196.256 91.4533 196.83 93.2267 196.83 95.52V105.64C196.83 106.547 196.87 107.093 196.95 107.28C197.03 107.44 197.283 107.547 197.71 107.6L199.91 107.88Z" fill="#FFA500"/>
<path d="M173.369 98.44V99.24C173.369 102.307 172.569 104.773 170.969 106.64C169.395 108.48 167.142 109.4 164.209 109.4C161.275 109.4 159.009 108.48 157.409 106.64C155.835 104.773 155.049 102.307 155.049 99.24V98.44C155.049 95.3733 155.835 92.92 157.409 91.08C159.009 89.24 161.275 88.32 164.209 88.32C167.142 88.32 169.395 89.24 170.969 91.08C172.569 92.92 173.369 95.3733 173.369 98.44ZM168.449 97.64C168.449 94.7867 168.089 92.76 167.369 91.56C166.649 90.3333 165.595 89.72 164.209 89.72C162.849 89.72 161.795 90.3333 161.049 91.56C160.329 92.76 159.969 94.7867 159.969 97.64V100.04C159.969 102.867 160.329 104.907 161.049 106.16C161.795 107.387 162.849 108 164.209 108C165.595 108 166.649 107.387 167.369 106.16C168.089 104.907 168.449 102.867 168.449 100.04V97.64Z" fill="#FFA500"/>
<path d="M146.944 85.28C146.117 85.28 145.451 85.0267 144.944 84.52C144.437 83.9867 144.184 83.3067 144.184 82.48C144.184 81.6533 144.437 80.9867 144.944 80.48C145.451 79.9733 146.117 79.72 146.944 79.72C147.744 79.72 148.411 79.9733 148.944 80.48C149.477 80.9867 149.744 81.6533 149.744 82.48C149.744 83.3067 149.477 83.9867 148.944 84.52C148.411 85.0267 147.744 85.28 146.944 85.28ZM141.584 89.84V88.72H149.264V105.64C149.264 106.547 149.304 107.093 149.384 107.28C149.464 107.44 149.717 107.547 150.144 107.6L152.344 107.88V109H141.584V107.88L143.784 107.6C144.211 107.547 144.464 107.44 144.544 107.28C144.624 107.093 144.664 106.547 144.664 105.64V92.08C144.664 91.1733 144.624 90.64 144.544 90.48C144.464 90.2933 144.211 90.1733 143.784 90.12L141.584 89.84Z" fill="#FFA500"/>
<path d="M129.273 80.52V79.4H136.953V105.64C136.953 106.547 136.993 107.093 137.073 107.28C137.153 107.44 137.406 107.547 137.833 107.6L140.033 107.88V109H129.273V107.88L131.473 107.6C131.899 107.547 132.153 107.44 132.233 107.28C132.313 107.093 132.353 106.547 132.353 105.64V82.76C132.353 81.8533 132.313 81.32 132.233 81.16C132.153 80.9733 131.899 80.8533 131.473 80.8L129.273 80.52Z" fill="#FFA500"/>
<path d="M117.242 80.52V79.4H124.922V105.64C124.922 106.547 124.962 107.093 125.042 107.28C125.122 107.44 125.375 107.547 125.802 107.6L128.002 107.88V109H117.242V107.88L119.442 107.6C119.868 107.547 120.122 107.44 120.202 107.28C120.282 107.093 120.322 106.547 120.322 105.64V82.76C120.322 81.8533 120.282 81.32 120.202 81.16C120.122 80.9733 119.868 80.8533 119.442 80.8L117.242 80.52Z" fill="#FFA500"/>
<path d="M110.577 85.28C109.75 85.28 109.084 85.0267 108.577 84.52C108.07 83.9867 107.817 83.3067 107.817 82.48C107.817 81.6533 108.07 80.9867 108.577 80.48C109.084 79.9733 109.75 79.72 110.577 79.72C111.377 79.72 112.044 79.9733 112.577 80.48C113.11 80.9867 113.377 81.6533 113.377 82.48C113.377 83.3067 113.11 83.9867 112.577 84.52C112.044 85.0267 111.377 85.28 110.577 85.28ZM105.217 89.84V88.72H112.897V105.64C112.897 106.547 112.937 107.093 113.017 107.28C113.097 107.44 113.35 107.547 113.777 107.6L115.977 107.88V109H105.217V107.88L107.417 107.6C107.844 107.547 108.097 107.44 108.177 107.28C108.257 107.093 108.297 106.547 108.297 105.64V92.08C108.297 91.1733 108.257 90.64 108.177 90.48C108.097 90.2933 107.844 90.1733 107.417 90.12L105.217 89.84Z" fill="#FFA500"/>
<path d="M81.3684 82.92V81.8H92.4084C94.5418 81.8 96.2351 82.0933 97.4884 82.68C98.7418 83.2667 99.6351 84.04 100.168 85C100.728 85.96 101.008 87.0267 101.008 88.2V89.28C101.008 90.6667 100.568 91.8667 99.6884 92.88C98.8351 93.8667 97.5818 94.5733 95.9284 95C97.9551 95.3467 99.5018 96.0667 100.568 97.16C101.662 98.2533 102.208 99.6267 102.208 101.28V102.4C102.208 103.6 101.928 104.707 101.368 105.72C100.808 106.707 99.8751 107.507 98.5684 108.12C97.2884 108.707 95.5684 109 93.4084 109H81.3684V107.88L83.5684 107.6C83.9951 107.547 84.2484 107.44 84.3284 107.28C84.4084 107.093 84.4484 106.547 84.4484 105.64V85.16C84.4484 84.2533 84.4084 83.72 84.3284 83.56C84.2484 83.3733 83.9951 83.2533 83.5684 83.2L81.3684 82.92ZM92.4084 83.2H89.2484V94.4H92.4084C93.5551 94.4 94.4218 94.0133 95.0084 93.24C95.5951 92.44 95.8884 91.1867 95.8884 89.48V88.2C95.8884 86.4667 95.5951 85.2 95.0084 84.4C94.4218 83.6 93.5551 83.2 92.4084 83.2ZM93.4084 95.8H89.2484V107.6H93.4084C94.6084 107.6 95.5151 107.2 96.1284 106.4C96.7684 105.573 97.0884 104.24 97.0884 102.4V101.08C97.0884 97.56 95.8618 95.8 93.4084 95.8Z" fill="#FFA500"/>
<path d="M133.455 3.36L139.015 -0.199997H142.855V23.64C142.855 24.5467 142.895 25.0933 142.975 25.28C143.055 25.44 143.309 25.5467 143.735 25.6L145.935 25.88V27H134.175V25.88L137.175 25.6C137.602 25.5467 137.855 25.44 137.935 25.28C138.015 25.0933 138.055 24.5467 138.055 23.64V2.12L134.215 4.56L133.455 3.36Z" fill="#FFA500"/>
<path d="M282.085 273.88V275H271.325V273.88L273.525 273.6C273.952 273.547 274.205 273.44 274.285 273.28C274.365 273.093 274.405 272.547 274.405 271.64V261.56C274.405 259.72 274.125 258.387 273.565 257.56C273.032 256.707 272.232 256.28 271.165 256.28C270.712 256.28 270.179 256.4 269.565 256.64C268.979 256.853 268.379 257.253 267.765 257.84C267.179 258.427 266.659 259.293 266.205 260.44V271.64C266.205 272.547 266.245 273.093 266.325 273.28C266.405 273.44 266.659 273.547 267.085 273.6L269.285 273.88V275H258.525V273.88L260.725 273.6C261.152 273.547 261.405 273.44 261.485 273.28C261.565 273.093 261.605 272.547 261.605 271.64V258.08C261.605 257.173 261.565 256.64 261.485 256.48C261.405 256.293 261.152 256.173 260.725 256.12L258.525 255.84V254.72H265.965V258.24C266.739 256.88 267.725 255.893 268.925 255.28C270.152 254.64 271.379 254.32 272.605 254.32C274.579 254.32 276.139 254.947 277.285 256.2C278.432 257.453 279.005 259.227 279.005 261.52V271.64C279.005 272.547 279.045 273.093 279.125 273.28C279.205 273.44 279.459 273.547 279.885 273.6L282.085 273.88Z" fill="#FFA500"/>
<path d="M251.545 264.44V265.24C251.545 268.307 250.745 270.773 249.145 272.64C247.571 274.48 245.318 275.4 242.385 275.4C239.451 275.4 237.185 274.48 235.585 272.64C234.011 270.773 233.225 268.307 233.225 265.24V264.44C233.225 261.373 234.011 258.92 235.585 257.08C237.185 255.24 239.451 254.32 242.385 254.32C245.318 254.32 247.571 255.24 249.145 257.08C250.745 258.92 251.545 261.373 251.545 264.44ZM246.625 263.64C246.625 260.787 246.265 258.76 245.545 257.56C244.825 256.333 243.771 255.72 242.385 255.72C241.025 255.72 239.971 256.333 239.225 257.56C238.505 258.76 238.145 260.787 238.145 263.64V266.04C238.145 268.867 238.505 270.907 239.225 272.16C239.971 273.387 241.025 274 242.385 274C243.771 274 244.825 273.387 245.545 272.16C246.265 270.907 246.625 268.867 246.625 266.04V263.64Z" fill="#FFA500"/>
<path d="M221.12 251.28C220.293 251.28 219.626 251.027 219.12 250.52C218.613 249.987 218.36 249.307 218.36 248.48C218.36 247.653 218.613 246.987 219.12 246.48C219.626 245.973 220.293 245.72 221.12 245.72C221.92 245.72 222.586 245.973 223.12 246.48C223.653 246.987 223.92 247.653 223.92 248.48C223.92 249.307 223.653 249.987 223.12 250.52C222.586 251.027 221.92 251.28 221.12 251.28ZM215.76 255.84V254.72H223.44V271.64C223.44 272.547 223.48 273.093 223.56 273.28C223.64 273.44 223.893 273.547 224.32 273.6L226.52 273.88V275H215.76V273.88L217.96 273.6C218.386 273.547 218.64 273.44 218.72 273.28C218.8 273.093 218.84 272.547 218.84 271.64V258.08C218.84 257.173 218.8 256.64 218.72 256.48C218.64 256.293 218.386 256.173 217.96 256.12L215.76 255.84Z" fill="#FFA500"/>
<path d="M210.219 270.84C209.872 272.467 209.205 273.64 208.219 274.36C207.259 275.053 206.085 275.4 204.699 275.4C203.285 275.4 202.125 275.093 201.219 274.48C200.312 273.84 199.645 273 199.219 271.96C198.792 270.92 198.579 269.813 198.579 268.64V258.08C198.579 257.173 198.539 256.64 198.459 256.48C198.379 256.293 198.125 256.173 197.699 256.12L195.499 255.84V254.72H198.579V250.08L203.179 249.16V254.72H209.579V256.12H203.179V269.44C203.179 271.147 203.392 272.333 203.819 273C204.245 273.64 204.792 273.96 205.459 273.96C206.152 273.96 206.685 273.693 207.059 273.16C207.459 272.627 207.712 271.653 207.819 270.24L210.219 270.84Z" fill="#FFA500"/>
<path d="M190.855 274C190.428 274.4 189.908 274.733 189.295 275C188.708 275.267 187.988 275.4 187.135 275.4C186.042 275.4 185.122 275.16 184.375 274.68C183.655 274.2 183.175 273.52 182.935 272.64C182.055 273.6 181.082 274.307 180.015 274.76C178.975 275.187 177.908 275.4 176.815 275.4C174.975 275.4 173.602 274.893 172.695 273.88C171.788 272.84 171.335 271.547 171.335 270C171.335 268.427 171.908 267.16 173.055 266.2C174.202 265.213 176.228 264.72 179.135 264.72H182.775V261.48C182.775 259.267 182.482 257.76 181.895 256.96C181.335 256.133 180.548 255.72 179.535 255.72C178.868 255.72 178.255 255.893 177.695 256.24C177.135 256.56 176.735 257.173 176.495 258.08C176.282 258.96 176.322 260.24 176.615 261.92L172.215 261.28C172.002 260.053 172.135 258.92 172.615 257.88C173.122 256.813 173.962 255.96 175.135 255.32C176.308 254.653 177.802 254.32 179.615 254.32C181.668 254.32 183.255 254.653 184.375 255.32C185.495 255.987 186.268 256.867 186.695 257.96C187.148 259.053 187.375 260.227 187.375 261.48V270.72C187.375 272.08 187.495 272.933 187.735 273.28C187.975 273.627 188.242 273.8 188.535 273.8C189.015 273.8 189.548 273.52 190.135 272.96L190.855 274ZM178.575 273.28C179.268 273.28 179.948 273.107 180.615 272.76C181.308 272.387 182.028 271.707 182.775 270.72V266.12H179.775C178.468 266.12 177.522 266.427 176.935 267.04C176.348 267.653 176.055 268.613 176.055 269.92C176.055 270.987 176.268 271.813 176.695 272.4C177.122 272.987 177.748 273.28 178.575 273.28Z" fill="#FFA500"/>
<path d="M162.821 268.92H163.941V275H148.461V274L158.501 256.12H153.301C152.688 256.12 152.235 256.147 151.941 256.2C151.675 256.227 151.501 256.32 151.421 256.48C151.341 256.613 151.248 256.84 151.141 257.16L150.061 260.8H148.941V254.72H163.541V255.72L153.501 273.6H159.581C160.221 273.6 160.675 273.587 160.941 273.56C161.208 273.507 161.381 273.413 161.461 273.28C161.568 273.12 161.661 272.88 161.741 272.56L162.821 268.92Z" fill="#FFA500"/>
<path d="M136.917 251.28C136.09 251.28 135.423 251.027 134.917 250.52C134.41 249.987 134.157 249.307 134.157 248.48C134.157 247.653 134.41 246.987 134.917 246.48C135.423 245.973 136.09 245.72 136.917 245.72C137.717 245.72 138.383 245.973 138.917 246.48C139.45 246.987 139.717 247.653 139.717 248.48C139.717 249.307 139.45 249.987 138.917 250.52C138.383 251.027 137.717 251.28 136.917 251.28ZM131.557 255.84V254.72H139.237V271.64C139.237 272.547 139.277 273.093 139.357 273.28C139.437 273.44 139.69 273.547 140.117 273.6L142.317 273.88V275H131.557V273.88L133.757 273.6C134.183 273.547 134.437 273.44 134.517 273.28C134.597 273.093 134.637 272.547 134.637 271.64V258.08C134.637 257.173 134.597 256.64 134.517 256.48C134.437 256.293 134.183 256.173 133.757 256.12L131.557 255.84Z" fill="#FFA500"/>
<path d="M126.195 273.88V275H115.435V273.88L117.635 273.6C118.061 273.547 118.315 273.44 118.395 273.28C118.475 273.093 118.515 272.547 118.515 271.64V261.56C118.515 259.72 118.235 258.387 117.675 257.56C117.141 256.707 116.341 256.28 115.275 256.28C114.821 256.28 114.288 256.4 113.675 256.64C113.088 256.853 112.488 257.253 111.875 257.84C111.288 258.427 110.768 259.293 110.315 260.44V271.64C110.315 272.547 110.355 273.093 110.435 273.28C110.515 273.44 110.768 273.547 111.195 273.6L113.395 273.88V275H102.635V273.88L104.835 273.6C105.261 273.547 105.515 273.44 105.595 273.28C105.675 273.093 105.715 272.547 105.715 271.64V258.08C105.715 257.173 105.675 256.64 105.595 256.48C105.515 256.293 105.261 256.173 104.835 256.12L102.635 255.84V254.72H110.075V258.24C110.848 256.88 111.835 255.893 113.035 255.28C114.261 254.64 115.488 254.32 116.715 254.32C118.688 254.32 120.248 254.947 121.395 256.2C122.541 257.453 123.115 259.227 123.115 261.52V271.64C123.115 272.547 123.155 273.093 123.235 273.28C123.315 273.44 123.568 273.547 123.995 273.6L126.195 273.88Z" fill="#FFA500"/>
<path d="M97.5114 274C97.0847 274.4 96.5647 274.733 95.9514 275C95.3647 275.267 94.6447 275.4 93.7914 275.4C92.6981 275.4 91.7781 275.16 91.0314 274.68C90.3114 274.2 89.8314 273.52 89.5914 272.64C88.7114 273.6 87.7381 274.307 86.6714 274.76C85.6314 275.187 84.5647 275.4 83.4714 275.4C81.6314 275.4 80.2581 274.893 79.3514 273.88C78.4447 272.84 77.9914 271.547 77.9914 270C77.9914 268.427 78.5647 267.16 79.7114 266.2C80.8581 265.213 82.8847 264.72 85.7914 264.72H89.4314V261.48C89.4314 259.267 89.1381 257.76 88.5514 256.96C87.9914 256.133 87.2047 255.72 86.1914 255.72C85.5247 255.72 84.9114 255.893 84.3514 256.24C83.7914 256.56 83.3914 257.173 83.1514 258.08C82.9381 258.96 82.9781 260.24 83.2714 261.92L78.8714 261.28C78.6581 260.053 78.7914 258.92 79.2714 257.88C79.7781 256.813 80.6181 255.96 81.7914 255.32C82.9647 254.653 84.4581 254.32 86.2714 254.32C88.3247 254.32 89.9114 254.653 91.0314 255.32C92.1514 255.987 92.9247 256.867 93.3514 257.96C93.8047 259.053 94.0314 260.227 94.0314 261.48V270.72C94.0314 272.08 94.1514 272.933 94.3914 273.28C94.6314 273.627 94.8981 273.8 95.1914 273.8C95.6714 273.8 96.2047 273.52 96.7914 272.96L97.5114 274ZM85.2314 273.28C85.9247 273.28 86.6047 273.107 87.2714 272.76C87.9647 272.387 88.6847 271.707 89.4314 270.72V266.12H86.4314C85.1247 266.12 84.1781 266.427 83.5914 267.04C83.0047 267.653 82.7114 268.613 82.7114 269.92C82.7114 270.987 82.9247 271.813 83.3514 272.4C83.7781 272.987 84.4047 273.28 85.2314 273.28Z" fill="#FFA500"/>
<path d="M71.3423 277.08C71.3423 279.267 70.5157 280.947 68.8623 282.12C67.2357 283.32 64.9957 283.92 62.1423 283.92C58.9957 283.92 56.649 283.4 55.1023 282.36C53.5557 281.347 52.7157 280.08 52.5823 278.56L56.8623 277.88C56.7557 279.293 57.089 280.413 57.8623 281.24C58.6623 282.093 60.089 282.52 62.1423 282.52C64.0623 282.52 65.609 282.16 66.7823 281.44C67.9823 280.72 68.5823 279.68 68.5823 278.32C68.5823 277.36 68.2223 276.627 67.5023 276.12C66.809 275.64 65.649 275.4 64.0223 275.4H59.4623C58.049 275.4 56.929 275.2 56.1023 274.8C55.3023 274.4 54.7423 273.907 54.4223 273.32C54.1023 272.707 53.9423 272.08 53.9423 271.44C53.9423 270.667 54.1557 269.907 54.5823 269.16C55.009 268.387 55.7423 267.627 56.7823 266.88C55.6357 266.373 54.7023 265.627 53.9823 264.64C53.2623 263.653 52.9023 262.427 52.9023 260.96C52.9023 259.467 53.249 258.24 53.9423 257.28C54.6357 256.293 55.569 255.56 56.7423 255.08C57.9157 254.573 59.2223 254.32 60.6623 254.32H61.3423C62.889 254.32 64.2223 254.573 65.3423 255.08L71.1023 252.24L71.5823 256.16H67.0223C67.6623 256.72 68.1557 257.4 68.5023 258.2C68.8757 258.973 69.0623 259.893 69.0623 260.96C69.0623 262.4 68.7157 263.613 68.0223 264.6C67.329 265.587 66.3957 266.333 65.2223 266.84C64.0757 267.347 62.7823 267.6 61.3423 267.6H60.6623C59.8623 267.6 59.0757 267.52 58.3023 267.36C57.6357 267.813 57.169 268.253 56.9023 268.68C56.6623 269.08 56.5423 269.467 56.5423 269.84C56.5423 270.267 56.729 270.587 57.1023 270.8C57.5023 271.013 58.1423 271.12 59.0223 271.12H64.2223C66.5157 271.12 68.2757 271.64 69.5023 272.68C70.729 273.693 71.3423 275.16 71.3423 277.08ZM61.3423 266.2C62.1957 266.2 62.929 265.827 63.5423 265.08C64.1557 264.333 64.4623 262.96 64.4623 260.96C64.4623 258.96 64.1557 257.587 63.5423 256.84C62.929 256.093 62.1957 255.72 61.3423 255.72H60.6623C59.809 255.72 59.0623 256.093 58.4223 256.84C57.809 257.587 57.5023 258.96 57.5023 260.96C57.5023 262.96 57.809 264.333 58.4223 265.08C59.0623 265.827 59.809 266.2 60.6623 266.2H61.3423Z" fill="#FFA500"/>
<path d="M29.3458 255.84V254.72H36.7858V258C38.4124 255.547 40.3458 254.32 42.5858 254.32C43.4124 254.32 44.2124 254.587 44.9858 255.12C45.7591 255.627 46.3991 256.587 46.9058 258L43.3458 259.92C42.9724 258.827 42.5324 258.093 42.0258 257.72C41.5458 257.32 41.0258 257.12 40.4658 257.12C39.8791 257.12 39.3058 257.307 38.7458 257.68C38.1858 258.053 37.6124 258.747 37.0258 259.76V271.64C37.0258 272.547 37.0658 273.093 37.1458 273.28C37.2258 273.44 37.4791 273.547 37.9058 273.6L40.9058 273.88V275H29.3458V273.88L31.5458 273.6C31.9724 273.547 32.2258 273.44 32.3058 273.28C32.3858 273.093 32.4258 272.547 32.4258 271.64V258.08C32.4258 257.173 32.3858 256.64 32.3058 256.48C32.2258 256.293 31.9724 256.173 31.5458 256.12L29.3458 255.84Z" fill="#FFA500"/>
<path d="M21.7927 260.12V262.64C21.7927 266.747 20.8727 269.907 19.0327 272.12C17.2193 274.307 14.526 275.4 10.9527 275.4C7.37934 275.4 4.67267 274.307 2.83267 272.12C1.01934 269.907 0.112671 266.747 0.112671 262.64V260.12C0.112671 256.013 1.01934 252.867 2.83267 250.68C4.67267 248.493 7.37934 247.4 10.9527 247.4C14.526 247.4 17.2193 248.493 19.0327 250.68C20.8727 252.867 21.7927 256.013 21.7927 260.12ZM16.6727 258.12C16.6727 255.773 16.4727 253.933 16.0727 252.6C15.6727 251.24 15.046 250.267 14.1927 249.68C13.366 249.093 12.286 248.8 10.9527 248.8C9.646 248.8 8.56601 249.093 7.71267 249.68C6.85934 250.267 6.23267 251.24 5.83267 252.6C5.43267 253.933 5.23267 255.773 5.23267 258.12V264.64C5.23267 266.96 5.43267 268.8 5.83267 270.16C6.23267 271.52 6.85934 272.507 7.71267 273.12C8.56601 273.707 9.646 274 10.9527 274C12.286 274 13.366 273.707 14.1927 273.12C15.046 272.507 15.6727 271.52 16.0727 270.16C16.4727 268.8 16.6727 266.96 16.6727 264.64V258.12Z" fill="#FFA500"/>
<path d="M196.356 308.328L196.476 307.68H202.26L202.14 308.328L200.796 308.448C200.636 308.464 200.516 308.496 200.436 308.544C200.356 308.592 200.292 308.696 200.244 308.856C200.196 309 200.14 309.256 200.076 309.624L197.868 322.056C197.772 322.616 197.74 322.944 197.772 323.04C197.804 323.136 197.948 323.2 198.204 323.232L199.5 323.376L199.38 324H193.596L193.716 323.376L195.06 323.232C195.236 323.216 195.356 323.192 195.42 323.16C195.5 323.112 195.564 323.016 195.612 322.872C195.66 322.712 195.716 322.44 195.78 322.056L197.988 309.624C198.084 309.064 198.116 308.736 198.084 308.64C198.052 308.544 197.908 308.48 197.652 308.448L196.356 308.328Z" fill="#FFA500"/>
<path d="M182.078 323.376L181.958 324H177.326L177.446 323.376L178.766 323.232C178.942 323.216 179.078 323.192 179.174 323.16C179.27 323.112 179.358 323.008 179.438 322.848C179.534 322.688 179.67 322.424 179.846 322.056L187.022 307.68H188.534L190.67 322.056C190.75 322.6 190.822 322.928 190.886 323.04C190.95 323.136 191.094 323.2 191.318 323.232L192.614 323.376L192.518 324H186.758L186.878 323.376L188.222 323.232C188.494 323.2 188.646 323.136 188.678 323.04C188.726 322.928 188.71 322.6 188.63 322.056L188.198 318.984H182.342L180.806 322.056C180.534 322.6 180.398 322.928 180.398 323.04C180.398 323.136 180.526 323.2 180.782 323.232L182.078 323.376ZM182.726 318.216H188.078L186.878 309.864L182.726 318.216Z" fill="#FFA500"/>
<path d="M173.106 323.04C173.106 322.624 173.242 322.272 173.514 321.984C173.786 321.696 174.146 321.552 174.594 321.552C174.994 321.552 175.306 321.656 175.53 321.864C175.754 322.072 175.866 322.368 175.866 322.752C175.866 323.168 175.73 323.52 175.458 323.808C175.202 324.096 174.842 324.24 174.378 324.24C173.994 324.24 173.682 324.136 173.442 323.928C173.218 323.72 173.106 323.424 173.106 323.04Z" fill="#FFA500"/>
<path d="M159.794 308.328L159.914 307.68H163.922L169.394 320.496L171.338 309.624C171.434 309.08 171.466 308.76 171.434 308.664C171.402 308.552 171.266 308.48 171.026 308.448L169.706 308.328L169.826 307.68H174.41L174.29 308.328L172.97 308.448C172.714 308.48 172.546 308.552 172.466 308.664C172.402 308.76 172.322 309.08 172.226 309.624L169.682 324H168.722L162.386 309.288L160.13 322.056C160.034 322.6 160.002 322.928 160.034 323.04C160.066 323.136 160.202 323.2 160.442 323.232L161.738 323.376L161.618 324H157.034L157.154 323.376L158.498 323.232C158.77 323.2 158.938 323.136 159.002 323.04C159.066 322.928 159.146 322.6 159.242 322.056L161.426 309.624C161.522 309.08 161.554 308.76 161.522 308.664C161.49 308.552 161.354 308.48 161.114 308.448L159.794 308.328Z" fill="#FFA500"/>
<path d="M145.515 323.376L145.395 324H140.763L140.883 323.376L142.203 323.232C142.379 323.216 142.515 323.192 142.611 323.16C142.707 323.112 142.795 323.008 142.875 322.848C142.971 322.688 143.107 322.424 143.283 322.056L150.459 307.68H151.971L154.107 322.056C154.187 322.6 154.259 322.928 154.323 323.04C154.387 323.136 154.531 323.2 154.755 323.232L156.051 323.376L155.955 324H150.195L150.315 323.376L151.659 323.232C151.931 323.2 152.083 323.136 152.115 323.04C152.163 322.928 152.147 322.6 152.067 322.056L151.635 318.984H145.779L144.243 322.056C143.971 322.6 143.835 322.928 143.835 323.04C143.835 323.136 143.963 323.2 144.219 323.232L145.515 323.376ZM146.163 318.216H151.515L150.315 309.864L146.163 318.216Z" fill="#FFA500"/>
<path d="M136.637 308.328L136.757 307.68H142.541L142.421 308.328L141.077 308.448C140.917 308.464 140.797 308.496 140.717 308.544C140.637 308.592 140.573 308.696 140.525 308.856C140.477 309 140.421 309.256 140.357 309.624L138.149 322.056C138.053 322.616 138.021 322.944 138.053 323.04C138.085 323.136 138.229 323.2 138.485 323.232L139.781 323.376L139.661 324H133.877L133.997 323.376L135.341 323.232C135.517 323.216 135.637 323.192 135.701 323.16C135.781 323.112 135.845 323.016 135.893 322.872C135.941 322.712 135.997 322.44 136.061 322.056L138.269 309.624C138.365 309.064 138.397 308.736 138.365 308.64C138.333 308.544 138.189 308.48 137.933 308.448L136.637 308.328Z" fill="#FFA500"/>
<path d="M133.142 320.04L132.446 324H121.526L121.646 323.376L122.99 323.232C123.166 323.216 123.286 323.192 123.35 323.16C123.43 323.112 123.494 323.016 123.542 322.872C123.59 322.712 123.646 322.44 123.71 322.056L125.918 309.624C126.014 309.064 126.046 308.736 126.014 308.64C125.982 308.544 125.838 308.48 125.582 308.448L124.286 308.328L124.406 307.68H130.19L130.07 308.328L128.726 308.448C128.566 308.464 128.446 308.496 128.366 308.544C128.286 308.592 128.222 308.696 128.174 308.856C128.126 309 128.07 309.256 128.006 309.624L125.606 323.232H129.95C130.334 323.232 130.606 323.224 130.766 323.208C130.926 323.176 131.046 323.12 131.126 323.04C131.206 322.944 131.286 322.8 131.366 322.608L132.518 320.04H133.142Z" fill="#FFA500"/>
<path d="M120.79 320.04L120.094 324H109.174L109.294 323.376L110.638 323.232C110.814 323.216 110.934 323.192 110.998 323.16C111.078 323.112 111.142 323.016 111.19 322.872C111.238 322.712 111.294 322.44 111.358 322.056L113.566 309.624C113.662 309.064 113.694 308.736 113.662 308.64C113.63 308.544 113.486 308.48 113.23 308.448L111.934 308.328L112.054 307.68H117.838L117.718 308.328L116.374 308.448C116.214 308.464 116.094 308.496 116.014 308.544C115.934 308.592 115.87 308.696 115.822 308.856C115.774 309 115.718 309.256 115.654 309.624L113.254 323.232H117.598C117.982 323.232 118.254 323.224 118.414 323.208C118.574 323.176 118.694 323.12 118.774 323.04C118.854 322.944 118.934 322.8 119.014 322.608L120.166 320.04H120.79Z" fill="#FFA500"/>
<path d="M103.848 308.328L103.968 307.68H109.752L109.632 308.328L108.288 308.448C108.128 308.464 108.008 308.496 107.928 308.544C107.848 308.592 107.784 308.696 107.736 308.856C107.688 309 107.632 309.256 107.568 309.624L105.36 322.056C105.264 322.616 105.232 322.944 105.264 323.04C105.296 323.136 105.44 323.2 105.696 323.232L106.992 323.376L106.872 324H101.088L101.208 323.376L102.552 323.232C102.728 323.216 102.848 323.192 102.912 323.16C102.992 323.112 103.056 323.016 103.104 322.872C103.152 322.712 103.208 322.44 103.272 322.056L105.48 309.624C105.576 309.064 105.608 308.736 105.576 308.64C105.544 308.544 105.4 308.48 105.144 308.448L103.848 308.328Z" fill="#FFA500"/>
<path d="M89.3169 308.328L89.4369 307.68H95.8689C96.9089 307.68 97.7489 307.864 98.3889 308.232C99.0449 308.584 99.5009 309.064 99.7569 309.672C100.029 310.264 100.101 310.928 99.9729 311.664L99.8769 312.336C99.7329 313.168 99.3809 313.872 98.8209 314.448C98.2609 315.008 97.5089 315.4 96.5649 315.624C97.6049 315.848 98.3649 316.304 98.8449 316.992C99.3249 317.68 99.4849 318.512 99.3249 319.488L99.2049 320.136C99.0289 321.304 98.4769 322.24 97.5489 322.944C96.6369 323.648 95.3969 324 93.8289 324H86.5569L86.6769 323.376L88.0209 323.232C88.2929 323.2 88.4609 323.136 88.5249 323.04C88.5889 322.928 88.6689 322.6 88.7649 322.056L90.9489 309.624C91.0449 309.064 91.0769 308.736 91.0449 308.64C91.0129 308.544 90.8769 308.48 90.6369 308.448L89.3169 308.328ZM95.8449 308.448H93.2289L92.0289 315.312H94.6209C96.2849 315.312 97.2849 314.384 97.6209 312.528L97.7889 311.544C97.9809 310.536 97.9089 309.768 97.5729 309.24C97.2369 308.712 96.6609 308.448 95.8449 308.448ZM95.1009 316.08H91.8849L90.6369 323.232H93.8289C95.5569 323.232 96.6049 322.24 96.9729 320.256L97.1409 319.272C97.3329 318.248 97.2529 317.464 96.9009 316.92C96.5489 316.36 95.9489 316.08 95.1009 316.08Z" fill="#FFA500"/>
<path d="M80.184 309.672L83.712 307.68H85.416L82.896 322.056C82.8 322.6 82.768 322.928 82.8 323.04C82.832 323.136 82.968 323.2 83.208 323.232L84.504 323.376L84.384 324H78.12L78.24 323.376L80.064 323.232C80.32 323.216 80.48 323.16 80.544 323.064C80.624 322.952 80.712 322.616 80.808 322.056L83.112 308.88L80.52 310.344L80.184 309.672Z" fill="#FFA500"/>
</g>
<defs>
<clipPath id="clip0_33_2265">
<rect width="282" height="333" fill="white"/>
</clipPath>
</defs>
</svg>
